<svg width="25" height="25" viewBox="0 0 25 25" fill="none" xmlns="http://www.w3.org/2000/svg">
<path d="M5.46875 5.46875V10.8496C5.46875 14.7266 8.57422 17.9395 12.4512 17.9688C13.3786 17.9752 14.2982 17.7981 15.1569 17.4476C16.0156 17.0971 16.7965 16.5802 17.4546 15.9267C18.1127 15.2731 18.635 14.4958 18.9914 13.6396C19.3478 12.7833 19.5313 11.865 19.5312 10.9375V5.46875C19.5312 5.26155 19.4489 5.06284 19.3024 4.91632C19.1559 4.76981 18.9572 4.6875 18.75 4.6875H6.25C6.0428 4.6875 5.84409 4.76981 5.69757 4.91632C5.55106 5.06284 5.46875 5.26155 5.46875 5.46875Z" stroke="white" stroke-width="2" stroke-linecap="round" stroke-linejoin="round"/>
<path d="M9.375 21.875H15.625" stroke="white" stroke-width="2" stroke-linecap="round" stroke-linejoin="round"/>
<path d="M12.5 17.9688V21.875" stroke="white" stroke-width="2" stroke-linecap="round" stroke-linejoin="round"/>
<path d="M19.3555 12.5H20.3125C21.1413 12.5 21.9362 12.1708 22.5222 11.5847C23.1083 10.9987 23.4375 10.2038 23.4375 9.375V7.8125C23.4375 7.6053 23.3552 7.40659 23.2087 7.26007C23.0622 7.11356 22.8635 7.03125 22.6563 7.03125H19.5313" stroke="white" stroke-width="2" stroke-linecap="round" stroke-linejoin="round"/>
<path d="M5.66406 12.5H4.67773C3.84893 12.5 3.05408 12.1708 2.46803 11.5847C1.88197 10.9987 1.55273 10.2038 1.55273 9.375V7.8125C1.55273 7.6053 1.63504 7.40659 1.78156 7.26007C1.92807 7.11356 2.12678 7.03125 2.33398 7.03125H5.45898" stroke="white" stroke-width="2" stroke-linecap="round" stroke-linejoin="round"/>
</svg>
