<svg width="25" height="25" viewBox="0 0 25 25" fill="none" xmlns="http://www.w3.org/2000/svg">
<path d="M7.8125 13.2812H17.1875" stroke="white" stroke-width="2" stroke-linecap="round" stroke-linejoin="round"/>
<path d="M4.6875 9.375V7.03125C4.6875 6.20245 5.01674 5.40759 5.60279 4.82154C6.18884 4.23549 6.9837 3.90625 7.8125 3.90625H17.1875C18.0163 3.90625 18.8112 4.23549 19.3972 4.82154C19.9833 5.40759 20.3125 6.20245 20.3125 7.03125V9.375" stroke="white" stroke-width="2" stroke-linecap="round" stroke-linejoin="round"/>
<path d="M7.8125 16.4063V12.5C7.8125 11.8819 7.62922 11.2777 7.28584 10.7638C6.94246 10.2499 6.45441 9.8494 5.88339 9.61288C5.31237 9.37635 4.68403 9.31447 4.07784 9.43505C3.47165 9.55563 2.91483 9.85325 2.47779 10.2903C2.04075 10.7273 1.74313 11.2842 1.62255 11.8903C1.50197 12.4965 1.56385 13.1249 1.80038 13.6959C2.0369 14.2669 2.43744 14.755 2.95134 15.0983C3.46525 15.4417 4.06943 15.625 4.6875 15.625V19.5313C4.6875 19.7385 4.76981 19.9372 4.91632 20.0837C5.06284 20.2302 5.26155 20.3125 5.46875 20.3125H19.5313C19.7385 20.3125 19.9372 20.2302 20.0837 20.0837C20.2302 19.9372 20.3125 19.7385 20.3125 19.5313V15.625C20.9306 15.625 21.5348 15.4417 22.0487 15.0983C22.5626 14.755 22.9631 14.2669 23.1996 13.6959C23.4361 13.1249 23.498 12.4965 23.3775 11.8903C23.2569 11.2842 22.9592 10.7273 22.5222 10.2903C22.0852 9.85325 21.5283 9.55563 20.9222 9.43505C20.316 9.31447 19.6876 9.37635 19.1166 9.61288C18.5456 9.8494 18.0575 10.2499 17.7142 10.7638C17.3708 11.2777 17.1875 11.8819 17.1875 12.5V16.4063" stroke="white" stroke-width="2" stroke-linecap="round" stroke-linejoin="round"/>
</svg>
