<svg width="25" height="25" viewBox="0 0 25 25" fill="none" xmlns="http://www.w3.org/2000/svg">
<path d="M9.375 4.6875H15.625C16.8682 4.6875 18.0605 5.18136 18.9396 6.06044C19.8186 6.93951 20.3125 8.1318 20.3125 9.375V21.0938C20.3125 21.301 20.2302 21.4997 20.0837 21.6462C19.9372 21.7927 19.7385 21.875 19.5312 21.875H5.46875C5.26155 21.875 5.06284 21.7927 4.91632 21.6462C4.76981 21.4997 4.6875 21.301 4.6875 21.0938V9.375C4.6875 8.1318 5.18136 6.93951 6.06044 6.06044C6.93951 5.18136 8.1318 4.6875 9.375 4.6875V4.6875Z" stroke="white" stroke-width="2" stroke-linecap="round" stroke-linejoin="round"/>
<path d="M7.8125 21.875V14.8438C7.8125 14.4293 7.97712 14.0319 8.27015 13.7389C8.56317 13.4459 8.9606 13.2812 9.375 13.2812H15.625C16.0394 13.2812 16.4368 13.4459 16.7299 13.7389C17.0229 14.0319 17.1875 14.4293 17.1875 14.8438V21.875" stroke="white" stroke-width="2" stroke-linecap="round" stroke-linejoin="round"/>
<path d="M9.375 4.6875V3.125C9.375 2.7106 9.53962 2.31317 9.83265 2.02015C10.1257 1.72712 10.5231 1.5625 10.9375 1.5625H14.0625C14.4769 1.5625 14.8743 1.72712 15.1674 2.02015C15.4604 2.31317 15.625 2.7106 15.625 3.125V4.6875" stroke="white" stroke-width="2" stroke-linecap="round" stroke-linejoin="round"/>
<path d="M10.9375 8.59375H14.0625" stroke="white" stroke-width="2" stroke-linecap="round" stroke-linejoin="round"/>
<path d="M7.8125 16.4062H17.1875" stroke="white" stroke-width="2" stroke-linecap="round" stroke-linejoin="round"/>
<path d="M14.0625 16.4062V17.9688" stroke="white" stroke-width="2" stroke-linecap="round" stroke-linejoin="round"/>
</svg>
