<svg width="100" height="100" viewBox="0 0 100 100" fill="none" xmlns="http://www.w3.org/2000/svg">
<circle opacity="0.5" cx="50" cy="50" r="35" fill="#DE5000"/>
<path d="M49.9873 43C51.9203 43 53.4873 41.433 53.4873 39.5C53.4873 37.567 51.9203 36 49.9873 36C48.0543 36 46.4873 37.567 46.4873 39.5C46.4873 41.433 48.0543 43 49.9873 43Z" stroke="white" stroke-width="2" stroke-linecap="round" stroke-linejoin="round"/>
<path d="M53.2375 50.8375L57.5875 54.2125C57.8751 54.4519 58.2417 54.5751 58.6155 54.5581C58.9893 54.541 59.3432 54.3849 59.6078 54.1203C59.8724 53.8557 60.0285 53.5018 60.0456 53.128C60.0626 52.7542 59.9394 52.3876 59.7 52.1L54.75 45.7375C54.5193 45.5045 54.2449 45.3194 53.9424 45.1928C53.6399 45.0662 53.3154 45.0007 52.9875 45H46.9875C46.322 45.0036 45.6846 45.2684 45.2125 45.7375L40.2625 52.1C40.0048 52.3861 39.8669 52.7603 39.8775 53.1453C39.8881 53.5302 40.0463 53.8963 40.3194 54.1678C40.5925 54.4393 40.9595 54.5953 41.3445 54.6036C41.7295 54.612 42.1029 54.4719 42.3875 54.2125L46.7375 50.8375L43.2625 61.7875C43.1788 61.9664 43.1311 62.1601 43.1223 62.3574C43.1134 62.5548 43.1435 62.7519 43.2108 62.9377C43.2781 63.1234 43.3814 63.294 43.5146 63.4398C43.6479 63.5856 43.8086 63.7038 43.9875 63.7875C44.1664 63.8712 44.3601 63.9189 44.5574 63.9277C44.7548 63.9366 44.9519 63.9065 45.1377 63.8392C45.3234 63.7719 45.494 63.6686 45.6398 63.5354C45.7856 63.4021 45.9038 63.2414 45.9875 63.0625L49.9875 56.7625L53.9875 63.0625C54.0656 63.2492 54.1808 63.4182 54.3259 63.5593C54.4711 63.7004 54.6433 63.8106 54.8323 63.8833C55.0212 63.9561 55.2228 63.9898 55.4251 63.9825C55.6274 63.9753 55.8262 63.9271 56.0093 63.841C56.1925 63.7549 56.3564 63.6326 56.4911 63.4815C56.6258 63.3304 56.7285 63.1535 56.793 62.9617C56.8575 62.7698 56.8826 62.5669 56.8666 62.3651C56.8506 62.1633 56.7939 61.9668 56.7 61.7875L53.2375 50.8375Z" stroke="white" stroke-width="2" stroke-linecap="round" stroke-linejoin="round"/>
</svg>
