<svg width="23" height="22" viewBox="0 0 23 22" fill="none" xmlns="http://www.w3.org/2000/svg">
<path d="M11.9295 17.6228L16.8513 20.7478C17.4861 21.1482 18.2674 20.5525 18.0818 19.8201L16.656 14.2146C16.6175 14.0592 16.6236 13.8961 16.6737 13.7441C16.7238 13.5921 16.8159 13.4573 16.9392 13.3552L21.3533 9.67361C21.9295 9.19509 21.6365 8.2283 20.8845 8.17947L15.1228 7.80837C14.9656 7.79923 14.8145 7.74448 14.6879 7.65083C14.5613 7.55718 14.4647 7.42868 14.4099 7.28103L12.2615 1.87087C12.2046 1.71453 12.101 1.57947 11.9648 1.48403C11.8285 1.3886 11.6661 1.3374 11.4998 1.3374C11.3334 1.3374 11.1711 1.3886 11.0348 1.48403C10.8985 1.57947 10.7949 1.71453 10.7381 1.87087L8.58963 7.28103C8.53487 7.42868 8.43829 7.55718 8.31169 7.65083C8.18509 7.74448 8.03394 7.79923 7.87674 7.80837L2.11502 8.17947C1.36306 8.2283 1.07009 9.19509 1.64627 9.67361L6.06033 13.3552C6.1837 13.4573 6.27575 13.5921 6.32585 13.7441C6.37596 13.8961 6.38208 14.0592 6.34353 14.2146L5.02517 19.4099C4.80056 20.2888 5.73806 21.0017 6.49002 20.5232L11.0701 17.6228C11.1985 17.5412 11.3476 17.4978 11.4998 17.4978C11.652 17.4978 11.801 17.5412 11.9295 17.6228V17.6228Z" stroke="white" stroke-width="2" stroke-linecap="round" stroke-linejoin="round"/>
</svg>
